<svg width="1447" height="997" viewBox="0 0 1447 997" fill="none" xmlns="http://www.w3.org/2000/svg">
<rect width="1447" height="997" fill="#F5F5F5"/>
<g clip-path="url(#clip0_0_1)">
<rect width="1447" height="997" fill="#171515"/>
<path d="M85.7633 567.56C-26.745 264.073 67.3248 220.51 491.763 349.56" stroke="#6A5A5A"/>
<path d="M780.044 373.16C614.942 167.571 1122.38 359.204 1129.42 18.1544" stroke="#6A5A5A"/>
<path d="M692.5 892C802.5 1024.5 1026 635.5 1059.18 929.881" stroke="#6A5A5A"/>
<path d="M648.293 53.4924C810.61 493.112 858.67 -151.023 911.293 53.4924" stroke="#6A5A5A"/>
<path d="M35.5002 101C176.581 58.3183 132 395 301.5 186.5M149 758C344.5 788 417 780.5 344.5 544" stroke="#6A5A5A"/>
<path d="M512 468C729.812 698.22 986 704.426 986 468" stroke="#6A5A5A"/>
<circle cx="574.5" cy="669.5" r="62" fill="#171515" stroke="#6A5A5A"/>
<rect x="782.34" y="439.683" width="105" height="99" transform="rotate(30.1047 782.34 439.683)" fill="#171515" stroke="#6A5A5A"/>
<path d="M940.5 350.5C1198.23 451.662 1323.82 606.196 1242 723" stroke="#6A5A5A"/>
<circle cx="641.5" cy="302.5" r="21" fill="#171515" stroke="#6A5A5A"/>
<circle cx="1104.5" cy="618.5" r="50" fill="#171515" stroke="#6A5A5A"/>
<circle cx="1278.5" cy="237.5" r="86" fill="#171515" stroke="#6A5A5A"/>
<rect x="168.81" y="344.662" width="100" height="68" transform="rotate(24.4526 168.81 344.662)" fill="#171515" stroke="#6A5A5A"/>
<rect x="920.5" y="754.5" width="29" height="29" fill="#171515" stroke="#6A5A5A"/>
<rect x="253.5" y="643.5" width="66" height="66" fill="#171515" stroke="#6A5A5A"/>
<path d="M180.183 517.881C282.56 584.881 390.56 380.365 443.183 584.881" stroke="#6A5A5A"/>
<path d="M938.5 259C1232.5 629.5 1052 -115 1423.56 161.867" stroke="#6A5A5A"/>
<path d="M287.742 132.689C508.5 49 408 333.5 550.742 199.689" stroke="#6A5A5A"/>
<path d="M375.183 877.881C759.5 607.5 517.5 1065.5 638.183 944.881" stroke="#6A5A5A"/>
<path d="M137.072 125.894L213.2 50.1538L240.728 153.953L137.072 125.894Z" fill="#171515" stroke="#6A5A5A"/>
<path d="M779.012 844.501L796.148 716.606L898.34 795.393L779.012 844.501Z" fill="#171515" stroke="#6A5A5A"/>
<path d="M1216.09 416.47L1281.89 357.538L1300.02 443.991L1216.09 416.47Z" fill="#171515" stroke="#6A5A5A"/>
<path d="M530.5 129.996L564.407 48.428L618.093 118.576L530.5 129.996Z" fill="#171515" stroke="#6A5A5A"/>
<path d="M581.297 477.5L622 407L662.703 477.5H581.297Z" fill="#171515" stroke="#6A5A5A"/>
<path d="M1124.36 933.25L1165.5 862L1206.64 933.25H1124.36Z" fill="#171515" stroke="#6A5A5A"/>
<path d="M113.012 891.878L194.966 846.806L193.023 940.316L113.012 891.878Z" fill="#171515" stroke="#6A5A5A"/>
<circle cx="895" cy="933" r="39.5" fill="#171515" stroke="#6A5A5A"/>
<circle cx="1072.5" cy="320.5" r="18" fill="#171515" stroke="#6A5A5A"/>
<circle cx="94" cy="728" r="17.5" fill="#171515" stroke="#6A5A5A"/>
<circle cx="94" cy="209" r="17.5" fill="#171515" stroke="#6A5A5A"/>
<circle cx="377" cy="200" r="8.5" fill="#171515" stroke="#6A5A5A"/>
<circle cx="906" cy="162" r="10.5" fill="#171515" stroke="#6A5A5A"/>
<circle cx="401.5" cy="421.5" r="15" fill="#171515" stroke="#6A5A5A"/>
<circle cx="870" cy="369" r="14.5" fill="#171515" stroke="#6A5A5A"/>
<circle cx="995" cy="678" r="8.5" fill="#171515" stroke="#6A5A5A"/>
<circle cx="428" cy="758" r="6.5" fill="#171515" stroke="#6A5A5A"/>
<rect x="1262.43" y="472.595" width="25" height="33" transform="rotate(-16.0374 1262.43 472.595)" fill="#171515" stroke="#6A5A5A"/>
<rect x="1054.5" y="769.5" width="211" height="44" fill="#171515" stroke="#6A5A5A"/>
<rect x="271.621" y="782.789" width="120" height="25" transform="rotate(16.6965 271.621 782.789)" fill="#171515" stroke="#6A5A5A"/>
<rect x="317.722" y="35.5976" width="145" height="37" transform="rotate(12.6839 317.722 35.5976)" fill="#171515" stroke="#6A5A5A"/>
<rect x="1318.5" y="568.5" width="22" height="87" fill="#171515" stroke="#6A5A5A"/>
<circle cx="417" cy="277" r="3.5" fill="#171515" stroke="#6A5A5A"/>
<circle cx="514" cy="585" r="3.5" fill="#171515" stroke="#6A5A5A"/>
<circle cx="811" cy="589" r="3.5" fill="#171515" stroke="#6A5A5A"/>
<circle cx="663" cy="817" r="3.5" fill="#171515" stroke="#6A5A5A"/>
<circle cx="113" cy="494" r="3.5" fill="#171515" stroke="#6A5A5A"/>
<circle cx="80" cy="838" r="3.5" fill="#171515" stroke="#6A5A5A"/>
<circle cx="1364" cy="359" r="3.5" fill="#171515" stroke="#6A5A5A"/>
<circle cx="1204" cy="45" r="3.5" fill="#171515" stroke="#6A5A5A"/>
<circle cx="1314" cy="880" r="3.5" fill="#171515" stroke="#6A5A5A"/>
<circle cx="1402" cy="751" r="3.5" fill="#171515" stroke="#6A5A5A"/>
<circle cx="192" cy="655" r="3.5" fill="#171515" stroke="#6A5A5A"/>
<circle cx="702" cy="381" r="8.5" fill="#171515" stroke="#6A5A5A"/>
<circle cx="476" cy="909" r="8.5" fill="#171515" stroke="#6A5A5A"/>
<circle cx="1023" cy="80" r="8.5" fill="#171515" stroke="#6A5A5A"/>
<circle cx="65" cy="635" r="8.5" fill="#171515" stroke="#6A5A5A"/>
<circle cx="286" cy="942" r="8.5" fill="#171515" stroke="#6A5A5A"/>
</g>
<defs>
<clipPath id="clip0_0_1">
<rect width="1447" height="997" fill="white"/>
</clipPath>
</defs>
</svg>
